<svg width="169" height="44" viewBox="0 0 169 44" fill="none" xmlns="http://www.w3.org/2000/svg">
<rect width="169" height="44" rx="22" fill="url(#paint0_linear_10091_38)"/>
<path d="M37.0234 18.7578C37.0234 18.3255 36.8542 17.987 36.5156 17.7422C36.1771 17.4922 35.7292 17.3672 35.1719 17.3672C34.6719 17.3672 34.2552 17.4922 33.9219 17.7422C33.5938 17.987 33.4297 18.3073 33.4297 18.7031H31.0859C31.0859 18.0885 31.2578 17.5365 31.6016 17.0469C31.9505 16.5521 32.4427 16.1667 33.0781 15.8906C33.7188 15.6146 34.4167 15.4766 35.1719 15.4766C36.4844 15.4766 37.513 15.7578 38.2578 16.3203C39.0026 16.8828 39.375 17.6797 39.375 18.7109C39.375 19.2161 39.2214 19.6849 38.9141 20.1172C38.612 20.5495 38.1797 20.8958 37.6172 21.1562C38.2422 21.375 38.7214 21.7083 39.0547 22.1562C39.388 22.599 39.5547 23.151 39.5547 23.8125C39.5547 24.8333 39.1536 25.6458 38.3516 26.25C37.5547 26.849 36.4948 27.1484 35.1719 27.1484C34.3438 27.1484 33.599 27.0078 32.9375 26.7266C32.276 26.4401 31.7734 26.0521 31.4297 25.5625C31.0911 25.0677 30.9219 24.4948 30.9219 23.8438H33.2812C33.2812 24.25 33.4583 24.5911 33.8125 24.8672C34.1667 25.138 34.6198 25.2734 35.1719 25.2734C35.7969 25.2734 36.2891 25.1328 36.6484 24.8516C37.013 24.5703 37.1953 24.2135 37.1953 23.7812C37.1953 23.1875 37.0339 22.763 36.7109 22.5078C36.388 22.2474 35.9167 22.1172 35.2969 22.1172H33.8984V20.2812H35.3438C36.4635 20.2656 37.0234 19.7578 37.0234 18.7578ZM46.0391 27C45.9349 26.7969 45.8594 26.5443 45.8125 26.2422C45.2656 26.8516 44.5547 27.1562 43.6797 27.1562C42.8516 27.1562 42.1641 26.9167 41.6172 26.4375C41.0755 25.9583 40.8047 25.3542 40.8047 24.625C40.8047 23.7292 41.1354 23.0417 41.7969 22.5625C42.4635 22.0833 43.4245 21.8411 44.6797 21.8359H45.7188V21.3516C45.7188 20.9609 45.6172 20.6484 45.4141 20.4141C45.2161 20.1797 44.901 20.0625 44.4688 20.0625C44.0885 20.0625 43.7891 20.1536 43.5703 20.3359C43.3568 20.5182 43.25 20.7682 43.25 21.0859H40.9922C40.9922 20.5964 41.1432 20.1432 41.4453 19.7266C41.7474 19.3099 42.1745 18.9844 42.7266 18.75C43.2786 18.5104 43.8984 18.3906 44.5859 18.3906C45.6276 18.3906 46.4531 18.6536 47.0625 19.1797C47.6771 19.7005 47.9844 20.4349 47.9844 21.3828V25.0469C47.9896 25.849 48.1016 26.4557 48.3203 26.8672V27H46.0391ZM44.1719 25.4297C44.5052 25.4297 44.8125 25.3568 45.0938 25.2109C45.375 25.0599 45.5833 24.8594 45.7188 24.6094V23.1562H44.875C43.7448 23.1562 43.1432 23.5469 43.0703 24.3281L43.0625 24.4609C43.0625 24.7422 43.1615 24.974 43.3594 25.1562C43.5573 25.3385 43.8281 25.4297 44.1719 25.4297ZM53.0312 23.8828H52.125V27H49.8672V18.5469H52.125V21.7266H52.9297L54.7734 18.5469H57.625L54.8594 22.5703L57.8828 27H54.875L53.0312 23.8828ZM63.6328 27C63.5286 26.7969 63.4531 26.5443 63.4062 26.2422C62.8594 26.8516 62.1484 27.1562 61.2734 27.1562C60.4453 27.1562 59.7578 26.9167 59.2109 26.4375C58.6693 25.9583 58.3984 25.3542 58.3984 24.625C58.3984 23.7292 58.7292 23.0417 59.3906 22.5625C60.0573 22.0833 61.0182 21.8411 62.2734 21.8359H63.3125V21.3516C63.3125 20.9609 63.2109 20.6484 63.0078 20.4141C62.8099 20.1797 62.4948 20.0625 62.0625 20.0625C61.6823 20.0625 61.3828 20.1536 61.1641 20.3359C60.9505 20.5182 60.8438 20.7682 60.8438 21.0859H58.5859C58.5859 20.5964 58.737 20.1432 59.0391 19.7266C59.3411 19.3099 59.7682 18.9844 60.3203 18.75C60.8724 18.5104 61.4922 18.3906 62.1797 18.3906C63.2214 18.3906 64.0469 18.6536 64.6562 19.1797C65.2708 19.7005 65.5781 20.4349 65.5781 21.3828V25.0469C65.5833 25.849 65.6953 26.4557 65.9141 26.8672V27H63.6328ZM61.7656 25.4297C62.099 25.4297 62.4062 25.3568 62.6875 25.2109C62.9688 25.0599 63.1771 24.8594 63.3125 24.6094V23.1562H62.4688C61.3385 23.1562 60.737 23.5469 60.6641 24.3281L60.6562 24.4609C60.6562 24.7422 60.7552 24.974 60.9531 25.1562C61.151 25.3385 61.4219 25.4297 61.7656 25.4297ZM71.75 21.0391C71.75 20.7422 71.651 20.513 71.4531 20.3516C71.2604 20.1849 70.9844 20.1016 70.625 20.1016C70.2552 20.1016 69.9531 20.1797 69.7188 20.3359C69.4896 20.487 69.375 20.7031 69.375 20.9844H67.1172C67.1172 20.2188 67.4349 19.5964 68.0703 19.1172C68.7057 18.638 69.5182 18.3984 70.5078 18.3984C71.5964 18.3984 72.4505 18.612 73.0703 19.0391C73.6953 19.4661 74.0078 20.0729 74.0078 20.8594C74.0078 21.2344 73.8932 21.5807 73.6641 21.8984C73.4401 22.2109 73.1224 22.4609 72.7109 22.6484C73.6745 22.987 74.1562 23.6406 74.1562 24.6094C74.1562 25.3854 73.8229 26.0052 73.1562 26.4688C72.4948 26.9271 71.612 27.1562 70.5078 27.1562C69.4818 27.1562 68.638 26.9167 67.9766 26.4375C67.3151 25.9583 66.9844 25.3125 66.9844 24.5H69.2422C69.2422 24.7865 69.3698 25.0182 69.625 25.1953C69.8802 25.3724 70.2135 25.4609 70.625 25.4609C71.026 25.4609 71.3385 25.3672 71.5625 25.1797C71.7865 24.9922 71.8984 24.7474 71.8984 24.4453C71.8984 24.0755 71.7917 23.8125 71.5781 23.6562C71.3646 23.4948 71.0443 23.4141 70.6172 23.4141H69.3906V21.9453H70.6953C71.3984 21.9245 71.75 21.6224 71.75 21.0391ZM80.4297 27C80.3255 26.7969 80.25 26.5443 80.2031 26.2422C79.6562 26.8516 78.9453 27.1562 78.0703 27.1562C77.2422 27.1562 76.5547 26.9167 76.0078 26.4375C75.4661 25.9583 75.1953 25.3542 75.1953 24.625C75.1953 23.7292 75.526 23.0417 76.1875 22.5625C76.8542 22.0833 77.8151 21.8411 79.0703 21.8359H80.1094V21.3516C80.1094 20.9609 80.0078 20.6484 79.8047 20.4141C79.6068 20.1797 79.2917 20.0625 78.8594 20.0625C78.4792 20.0625 78.1797 20.1536 77.9609 20.3359C77.7474 20.5182 77.6406 20.7682 77.6406 21.0859H75.3828C75.3828 20.5964 75.5339 20.1432 75.8359 19.7266C76.138 19.3099 76.5651 18.9844 77.1172 18.75C77.6693 18.5104 78.2891 18.3906 78.9766 18.3906C80.0182 18.3906 80.8438 18.6536 81.4531 19.1797C82.0677 19.7005 82.375 20.4349 82.375 21.3828V25.0469C82.3802 25.849 82.4922 26.4557 82.7109 26.8672V27H80.4297ZM78.5625 25.4297C78.8958 25.4297 79.2031 25.3568 79.4844 25.2109C79.7656 25.0599 79.974 24.8594 80.1094 24.6094V23.1562H79.2656C78.1354 23.1562 77.5339 23.5469 77.4609 24.3281L77.4531 24.4609C77.4531 24.7422 77.5521 24.974 77.75 25.1562C77.9479 25.3385 78.2188 25.4297 78.5625 25.4297ZM91 20.3594H88.2891V27H86.0234V20.3594H83.3594V18.5469H91V20.3594ZM94.5547 21.0234H96.1719C96.901 21.0234 97.5417 21.1458 98.0938 21.3906C98.6458 21.6354 99.0677 21.987 99.3594 22.4453C99.6562 22.8984 99.8047 23.4271 99.8047 24.0312C99.8047 24.9219 99.474 25.6406 98.8125 26.1875C98.1562 26.7292 97.2604 27 96.125 27H92.2891V18.5469H94.5547V21.0234ZM94.5547 22.8359V25.1953H96.1562C96.6042 25.1953 96.9479 25.0911 97.1875 24.8828C97.4271 24.6745 97.5469 24.3906 97.5469 24.0312C97.5469 23.6667 97.4297 23.3776 97.1953 23.1641C96.9609 22.9453 96.6146 22.8359 96.1562 22.8359H94.5547ZM108.375 23.8828H107.469V27H105.211V18.5469H107.469V21.7266H108.273L110.117 18.5469H112.969L110.203 22.5703L113.227 27H110.219L108.375 23.8828ZM117.234 23.8047L118.797 18.5469H121.219L117.82 28.3125L117.633 28.7578C117.128 29.862 116.294 30.4141 115.133 30.4141C114.805 30.4141 114.471 30.3646 114.133 30.2656V28.5547L114.477 28.5625C114.904 28.5625 115.221 28.4974 115.43 28.3672C115.643 28.237 115.81 28.0208 115.93 27.7188L116.195 27.0234L113.234 18.5469H115.664L117.234 23.8047ZM129.719 22.8516C129.719 24.1536 129.422 25.1979 128.828 25.9844C128.24 26.7656 127.443 27.1562 126.438 27.1562C125.583 27.1562 124.893 26.8594 124.367 26.2656V30.25H122.109V18.5469H124.203L124.281 19.375C124.828 18.7188 125.542 18.3906 126.422 18.3906C127.464 18.3906 128.273 18.776 128.852 19.5469C129.43 20.3177 129.719 21.3802 129.719 22.7344V22.8516ZM127.461 22.6875C127.461 21.901 127.32 21.2943 127.039 20.8672C126.763 20.4401 126.359 20.2266 125.828 20.2266C125.12 20.2266 124.633 20.4974 124.367 21.0391V24.5C124.643 25.0573 125.135 25.3359 125.844 25.3359C126.922 25.3359 127.461 24.4531 127.461 22.6875ZM134.641 25.3359C135.057 25.3359 135.396 25.2214 135.656 24.9922C135.917 24.763 136.052 24.4583 136.062 24.0781H138.18C138.174 24.651 138.018 25.1771 137.711 25.6562C137.404 26.1302 136.982 26.5 136.445 26.7656C135.914 27.026 135.326 27.1562 134.68 27.1562C133.471 27.1562 132.518 26.7734 131.82 26.0078C131.122 25.237 130.773 24.1745 130.773 22.8203V22.6719C130.773 21.3698 131.12 20.3307 131.812 19.5547C132.505 18.7786 133.456 18.3906 134.664 18.3906C135.721 18.3906 136.568 18.6927 137.203 19.2969C137.844 19.8958 138.169 20.6953 138.18 21.6953H136.062C136.052 21.2578 135.917 20.9036 135.656 20.6328C135.396 20.3568 135.052 20.2188 134.625 20.2188C134.099 20.2188 133.701 20.4115 133.43 20.7969C133.164 21.1771 133.031 21.7969 133.031 22.6562V22.8906C133.031 23.7604 133.164 24.3854 133.43 24.7656C133.695 25.1458 134.099 25.3359 134.641 25.3359Z" fill="white"/>
<defs>
<linearGradient id="paint0_linear_10091_38" x1="20.5" y1="1.49591e-05" x2="157.5" y2="44" gradientUnits="userSpaceOnUse">
<stop stop-color="#DF5950"/>
<stop offset="1" stop-color="#451046"/>
</linearGradient>
</defs>
</svg>
