<svg width="108" height="112" viewBox="0 0 108 112" fill="none" xmlns="http://www.w3.org/2000/svg">
<rect width="108" height="112" fill="#121212"/>
<path d="M47.0801 57H42V37.418L35.9355 39.2988V35.168L46.5352 31.3711H47.0801V57ZM72.0938 38.209C72.0938 39.4512 71.7832 40.5527 71.1621 41.5137C70.541 42.4746 69.6855 43.2422 68.5957 43.8164C69.8379 44.4141 70.8223 45.2402 71.5488 46.2949C72.2754 47.3379 72.6387 48.5684 72.6387 49.9863C72.6387 52.2598 71.8652 54.0586 70.3184 55.3828C68.7715 56.6953 66.668 57.3516 64.0078 57.3516C61.3477 57.3516 59.2383 56.6895 57.6797 55.3652C56.1211 54.041 55.3418 52.248 55.3418 49.9863C55.3418 48.5684 55.7051 47.332 56.4316 46.2773C57.1582 45.2227 58.1367 44.4023 59.3672 43.8164C58.2773 43.2422 57.4219 42.4746 56.8008 41.5137C56.1914 40.5527 55.8867 39.4512 55.8867 38.209C55.8867 36.0293 56.6133 34.2949 58.0664 33.0059C59.5195 31.7051 61.4941 31.0547 63.9902 31.0547C66.4746 31.0547 68.4434 31.6992 69.8965 32.9883C71.3613 34.2656 72.0938 36.0059 72.0938 38.209ZM67.541 49.6172C67.541 48.5039 67.2188 47.6133 66.5742 46.9453C65.9297 46.2773 65.0625 45.9434 63.9727 45.9434C62.8945 45.9434 62.0332 46.2773 61.3887 46.9453C60.7441 47.6016 60.4219 48.4922 60.4219 49.6172C60.4219 50.707 60.7383 51.5859 61.3711 52.2539C62.0039 52.9219 62.8828 53.2559 64.0078 53.2559C65.1094 53.2559 65.9707 52.9336 66.5918 52.2891C67.2246 51.6445 67.541 50.7539 67.541 49.6172ZM67.0137 38.4551C67.0137 37.459 66.75 36.6621 66.2227 36.0645C65.6953 35.4551 64.9512 35.1504 63.9902 35.1504C63.041 35.1504 62.3027 35.4434 61.7754 36.0293C61.248 36.6152 60.9844 37.4238 60.9844 38.4551C60.9844 39.4746 61.248 40.2949 61.7754 40.916C62.3027 41.5371 63.0469 41.8477 64.0078 41.8477C64.9688 41.8477 65.707 41.5371 66.2227 40.916C66.75 40.2949 67.0137 39.4746 67.0137 38.4551Z" fill="white"/>
<path opacity="0.4" d="M33.4062 74.625L37.125 83.9062L40.8438 74.625H42.7891V86H41.2891V81.5703L41.4297 76.7891L37.6953 86H36.5469L32.8203 76.8125L32.9688 81.5703V86H31.4688V74.625H33.4062ZM50.6797 77.5469H52.125V86H50.6797V79.8359L46.7812 86H45.3359V77.5469H46.7812V83.7188L50.6797 77.5469ZM61.3516 86H59.9062V82.3906H56.0234V86H54.5703V77.5469H56.0234V81.2109H59.9062V77.5469H61.3516V86ZM66.4453 83.8828L68.4141 77.5469H69.9609L66.5625 87.3047C66.0365 88.7109 65.2005 89.4141 64.0547 89.4141L63.7812 89.3906L63.2422 89.2891V88.1172L63.6328 88.1484C64.1224 88.1484 64.5026 88.0495 64.7734 87.8516C65.0495 87.6536 65.276 87.2917 65.4531 86.7656L65.7734 85.9062L62.7578 77.5469H64.3359L66.4453 83.8828ZM77.5391 78.7188H74.7031V86H73.2578V78.7188H70.4766V77.5469H77.5391V78.7188Z" fill="white"/>
</svg>
