<svg width="115" height="112" viewBox="0 0 115 112" fill="none" xmlns="http://www.w3.org/2000/svg">
<rect width="115" height="112" fill="#121212"/>
<path d="M50.5801 57H45.5V37.418L39.4355 39.2988V35.168L50.0352 31.3711H50.5801V57ZM75.5938 38.209C75.5938 39.4512 75.2832 40.5527 74.6621 41.5137C74.041 42.4746 73.1855 43.2422 72.0957 43.8164C73.3379 44.4141 74.3223 45.2402 75.0488 46.2949C75.7754 47.3379 76.1387 48.5684 76.1387 49.9863C76.1387 52.2598 75.3652 54.0586 73.8184 55.3828C72.2715 56.6953 70.168 57.3516 67.5078 57.3516C64.8477 57.3516 62.7383 56.6895 61.1797 55.3652C59.6211 54.041 58.8418 52.248 58.8418 49.9863C58.8418 48.5684 59.2051 47.332 59.9316 46.2773C60.6582 45.2227 61.6367 44.4023 62.8672 43.8164C61.7773 43.2422 60.9219 42.4746 60.3008 41.5137C59.6914 40.5527 59.3867 39.4512 59.3867 38.209C59.3867 36.0293 60.1133 34.2949 61.5664 33.0059C63.0195 31.7051 64.9941 31.0547 67.4902 31.0547C69.9746 31.0547 71.9434 31.6992 73.3965 32.9883C74.8613 34.2656 75.5938 36.0059 75.5938 38.209ZM71.041 49.6172C71.041 48.5039 70.7188 47.6133 70.0742 46.9453C69.4297 46.2773 68.5625 45.9434 67.4727 45.9434C66.3945 45.9434 65.5332 46.2773 64.8887 46.9453C64.2441 47.6016 63.9219 48.4922 63.9219 49.6172C63.9219 50.707 64.2383 51.5859 64.8711 52.2539C65.5039 52.9219 66.3828 53.2559 67.5078 53.2559C68.6094 53.2559 69.4707 52.9336 70.0918 52.2891C70.7246 51.6445 71.041 50.7539 71.041 49.6172ZM70.5137 38.4551C70.5137 37.459 70.25 36.6621 69.7227 36.0645C69.1953 35.4551 68.4512 35.1504 67.4902 35.1504C66.541 35.1504 65.8027 35.4434 65.2754 36.0293C64.748 36.6152 64.4844 37.4238 64.4844 38.4551C64.4844 39.4746 64.748 40.2949 65.2754 40.916C65.8027 41.5371 66.5469 41.8477 67.5078 41.8477C68.4688 41.8477 69.207 41.5371 69.7227 40.916C70.25 40.2949 70.5137 39.4746 70.5137 38.4551Z" fill="white"/>
<path opacity="0.4" d="M40.1797 82.3906C40.0391 83.5938 39.5938 84.5234 38.8438 85.1797C38.099 85.8307 37.1068 86.1562 35.8672 86.1562C34.5234 86.1562 33.4453 85.6745 32.6328 84.7109C31.8255 83.7474 31.4219 82.4583 31.4219 80.8438V79.75C31.4219 78.6927 31.6094 77.763 31.9844 76.9609C32.3646 76.1589 32.901 75.5443 33.5938 75.1172C34.2865 74.6849 35.0885 74.4688 36 74.4688C37.2083 74.4688 38.1771 74.8073 38.9062 75.4844C39.6354 76.1562 40.0599 77.0885 40.1797 78.2812H38.6719C38.5417 77.375 38.2578 76.7188 37.8203 76.3125C37.388 75.9062 36.7812 75.7031 36 75.7031C35.0417 75.7031 34.2891 76.0573 33.7422 76.7656C33.2005 77.474 32.9297 78.4818 32.9297 79.7891V80.8906C32.9297 82.125 33.1875 83.1068 33.7031 83.8359C34.2188 84.5651 34.9401 84.9297 35.8672 84.9297C36.7005 84.9297 37.3385 84.7422 37.7812 84.3672C38.2292 83.987 38.526 83.3281 38.6719 82.3906H40.1797ZM45.5156 86.1562C44.3698 86.1562 43.4375 85.7812 42.7188 85.0312C42 84.276 41.6406 83.2682 41.6406 82.0078V81.7422C41.6406 80.9036 41.7995 80.1562 42.1172 79.5C42.4401 78.8385 42.888 78.3229 43.4609 77.9531C44.0391 77.5781 44.6641 77.3906 45.3359 77.3906C46.4349 77.3906 47.2891 77.7526 47.8984 78.4766C48.5078 79.2005 48.8125 80.237 48.8125 81.5859V82.1875H43.0859C43.1068 83.0208 43.349 83.6953 43.8125 84.2109C44.2812 84.7214 44.875 84.9766 45.5938 84.9766C46.1042 84.9766 46.5365 84.8724 46.8906 84.6641C47.2448 84.4557 47.5547 84.1797 47.8203 83.8359L48.7031 84.5234C47.9948 85.612 46.9323 86.1562 45.5156 86.1562ZM45.3359 78.5781C44.7526 78.5781 44.263 78.7917 43.8672 79.2188C43.4714 79.6406 43.2266 80.2344 43.1328 81H47.3672V80.8906C47.3255 80.1562 47.1276 79.5885 46.7734 79.1875C46.4193 78.7812 45.9401 78.5781 45.3359 78.5781ZM53.125 82.3984H52.0703V86H50.6172V77.5469H52.0703V81.125H53.0156L55.8594 77.5469H57.6094L54.2656 81.6094L57.8906 86H56.0547L53.125 82.3984ZM61.8984 83.8828L63.8672 77.5469H65.4141L62.0156 87.3047C61.4896 88.7109 60.6536 89.4141 59.5078 89.4141L59.2344 89.3906L58.6953 89.2891V88.1172L59.0859 88.1484C59.5755 88.1484 59.9557 88.0495 60.2266 87.8516C60.5026 87.6536 60.7292 87.2917 60.9062 86.7656L61.2266 85.9062L58.2109 77.5469H59.7891L61.8984 83.8828ZM73.6172 86H72.1719V82.3906H68.2891V86H66.8359V77.5469H68.2891V81.2109H72.1719V77.5469H73.6172V86ZM75.875 84.8203L76.375 84.2031C76.9375 83.474 77.2578 82.3802 77.3359 80.9219L77.4688 77.5469H82.9141V84.8203H84V88.4844H82.5547V86H76.6562V88.4844H75.2109L75.2188 84.8203H75.875ZM77.5859 84.8203H81.4688V78.8828H78.8672L78.7812 80.8984C78.6927 82.5807 78.2943 83.888 77.5859 84.8203Z" fill="white"/>
</svg>
