<svg width="102" height="112" viewBox="0 0 102 112" fill="none" xmlns="http://www.w3.org/2000/svg">
<rect width="102" height="112" fill="#121212"/>
<path d="M44.0801 57H39V37.418L32.9355 39.2988V35.168L43.5352 31.3711H44.0801V57ZM69.0938 38.209C69.0938 39.4512 68.7832 40.5527 68.1621 41.5137C67.541 42.4746 66.6855 43.2422 65.5957 43.8164C66.8379 44.4141 67.8223 45.2402 68.5488 46.2949C69.2754 47.3379 69.6387 48.5684 69.6387 49.9863C69.6387 52.2598 68.8652 54.0586 67.3184 55.3828C65.7715 56.6953 63.668 57.3516 61.0078 57.3516C58.3477 57.3516 56.2383 56.6895 54.6797 55.3652C53.1211 54.041 52.3418 52.248 52.3418 49.9863C52.3418 48.5684 52.7051 47.332 53.4316 46.2773C54.1582 45.2227 55.1367 44.4023 56.3672 43.8164C55.2773 43.2422 54.4219 42.4746 53.8008 41.5137C53.1914 40.5527 52.8867 39.4512 52.8867 38.209C52.8867 36.0293 53.6133 34.2949 55.0664 33.0059C56.5195 31.7051 58.4941 31.0547 60.9902 31.0547C63.4746 31.0547 65.4434 31.6992 66.8965 32.9883C68.3613 34.2656 69.0938 36.0059 69.0938 38.209ZM64.541 49.6172C64.541 48.5039 64.2188 47.6133 63.5742 46.9453C62.9297 46.2773 62.0625 45.9434 60.9727 45.9434C59.8945 45.9434 59.0332 46.2773 58.3887 46.9453C57.7441 47.6016 57.4219 48.4922 57.4219 49.6172C57.4219 50.707 57.7383 51.5859 58.3711 52.2539C59.0039 52.9219 59.8828 53.2559 61.0078 53.2559C62.1094 53.2559 62.9707 52.9336 63.5918 52.2891C64.2246 51.6445 64.541 50.7539 64.541 49.6172ZM64.0137 38.4551C64.0137 37.459 63.75 36.6621 63.2227 36.0645C62.6953 35.4551 61.9512 35.1504 60.9902 35.1504C60.041 35.1504 59.3027 35.4434 58.7754 36.0293C58.248 36.6152 57.9844 37.4238 57.9844 38.4551C57.9844 39.4746 58.248 40.2949 58.7754 40.916C59.3027 41.5371 60.0469 41.8477 61.0078 41.8477C61.9688 41.8477 62.707 41.5371 63.2227 40.916C63.75 40.2949 64.0137 39.4746 64.0137 38.4551Z" fill="white"/>
<path opacity="0.4" d="M43.0625 88.7891H41.5703V86H33.4062V88.7969H31.9062L31.8984 84.7734H32.8281C33.3177 84.2214 33.7057 83.4818 33.9922 82.5547C34.2839 81.6224 34.4661 80.6016 34.5391 79.4922L34.7891 74.625H41.5938V84.7734H43.0781L43.0625 88.7891ZM34.5391 84.7734H40.0859V75.8594H36.2344L36.0703 79.2031C36.0026 80.5104 35.8281 81.625 35.5469 82.5469C35.2708 83.4688 34.9349 84.2109 34.5391 84.7734ZM51.5391 86H50.0938V82.3906H46.2109V86H44.7578V77.5469H46.2109V81.2109H50.0938V77.5469H51.5391V86ZM57.375 86.1562C56.2292 86.1562 55.2969 85.7812 54.5781 85.0312C53.8594 84.276 53.5 83.2682 53.5 82.0078V81.7422C53.5 80.9036 53.6589 80.1562 53.9766 79.5C54.2995 78.8385 54.7474 78.3229 55.3203 77.9531C55.8984 77.5781 56.5234 77.3906 57.1953 77.3906C58.2943 77.3906 59.1484 77.7526 59.7578 78.4766C60.3672 79.2005 60.6719 80.237 60.6719 81.5859V82.1875H54.9453C54.9661 83.0208 55.2083 83.6953 55.6719 84.2109C56.1406 84.7214 56.7344 84.9766 57.4531 84.9766C57.9635 84.9766 58.3958 84.8724 58.75 84.6641C59.1042 84.4557 59.4141 84.1797 59.6797 83.8359L60.5625 84.5234C59.8542 85.612 58.7917 86.1562 57.375 86.1562ZM57.1953 78.5781C56.612 78.5781 56.1224 78.7917 55.7266 79.2188C55.3307 79.6406 55.0859 80.2344 54.9922 81H59.2266V80.8906C59.1849 80.1562 58.987 79.5885 58.6328 79.1875C58.2786 78.7812 57.7995 78.5781 57.1953 78.5781ZM67.8203 77.5469H69.2656V86H67.8203V79.8359L63.9219 86H62.4766V77.5469H63.9219V83.7188L67.8203 77.5469ZM68.2109 74.4688C68.2109 75.099 67.9948 75.6068 67.5625 75.9922C67.1354 76.3724 66.5729 76.5625 65.875 76.5625C65.1771 76.5625 64.612 76.3698 64.1797 75.9844C63.7474 75.599 63.5312 75.0938 63.5312 74.4688H64.7109C64.7109 74.8333 64.8099 75.1198 65.0078 75.3281C65.2057 75.5312 65.4948 75.6328 65.875 75.6328C66.2396 75.6328 66.5234 75.5312 66.7266 75.3281C66.9349 75.125 67.0391 74.8385 67.0391 74.4688H68.2109Z" fill="white"/>
</svg>
