<svg width="107" height="112" viewBox="0 0 107 112" fill="none" xmlns="http://www.w3.org/2000/svg">
<rect width="107" height="112" fill="#121212"/>
<path d="M46.5801 57H41.5V37.418L35.4355 39.2988V35.168L46.0352 31.3711H46.5801V57ZM71.5938 38.209C71.5938 39.4512 71.2832 40.5527 70.6621 41.5137C70.041 42.4746 69.1855 43.2422 68.0957 43.8164C69.3379 44.4141 70.3223 45.2402 71.0488 46.2949C71.7754 47.3379 72.1387 48.5684 72.1387 49.9863C72.1387 52.2598 71.3652 54.0586 69.8184 55.3828C68.2715 56.6953 66.168 57.3516 63.5078 57.3516C60.8477 57.3516 58.7383 56.6895 57.1797 55.3652C55.6211 54.041 54.8418 52.248 54.8418 49.9863C54.8418 48.5684 55.2051 47.332 55.9316 46.2773C56.6582 45.2227 57.6367 44.4023 58.8672 43.8164C57.7773 43.2422 56.9219 42.4746 56.3008 41.5137C55.6914 40.5527 55.3867 39.4512 55.3867 38.209C55.3867 36.0293 56.1133 34.2949 57.5664 33.0059C59.0195 31.7051 60.9941 31.0547 63.4902 31.0547C65.9746 31.0547 67.9434 31.6992 69.3965 32.9883C70.8613 34.2656 71.5938 36.0059 71.5938 38.209ZM67.041 49.6172C67.041 48.5039 66.7188 47.6133 66.0742 46.9453C65.4297 46.2773 64.5625 45.9434 63.4727 45.9434C62.3945 45.9434 61.5332 46.2773 60.8887 46.9453C60.2441 47.6016 59.9219 48.4922 59.9219 49.6172C59.9219 50.707 60.2383 51.5859 60.8711 52.2539C61.5039 52.9219 62.3828 53.2559 63.5078 53.2559C64.6094 53.2559 65.4707 52.9336 66.0918 52.2891C66.7246 51.6445 67.041 50.7539 67.041 49.6172ZM66.5137 38.4551C66.5137 37.459 66.25 36.6621 65.7227 36.0645C65.1953 35.4551 64.4512 35.1504 63.4902 35.1504C62.541 35.1504 61.8027 35.4434 61.2754 36.0293C60.748 36.6152 60.4844 37.4238 60.4844 38.4551C60.4844 39.4746 60.748 40.2949 61.2754 40.916C61.8027 41.5371 62.5469 41.8477 63.5078 41.8477C64.4688 41.8477 65.207 41.5371 65.7227 40.916C66.25 40.2949 66.5137 39.4746 66.5137 38.4551Z" fill="white"/>
<path opacity="0.4" d="M39.9141 74.625V86H38.4062V81.2891C37.8594 81.4453 37.362 81.5547 36.9141 81.6172C36.4661 81.6745 35.9557 81.7031 35.3828 81.7031C34.0859 81.7031 33.1224 81.4219 32.4922 80.8594C31.862 80.2969 31.5391 79.4349 31.5234 78.2734V74.625H33.0312V78.2344C33.0365 79.026 33.2161 79.5964 33.5703 79.9453C33.9297 80.2943 34.5339 80.4688 35.3828 80.4688C36.3724 80.4688 37.3802 80.3281 38.4062 80.0469V74.625H39.9141ZM47.6172 86C47.5339 85.8333 47.4661 85.5365 47.4141 85.1094C46.7422 85.8073 45.9401 86.1562 45.0078 86.1562C44.1745 86.1562 43.4896 85.9219 42.9531 85.4531C42.4219 84.9792 42.1562 84.3802 42.1562 83.6562C42.1562 82.776 42.4896 82.0938 43.1562 81.6094C43.8281 81.1198 44.7708 80.875 45.9844 80.875H47.3906V80.2109C47.3906 79.7057 47.2396 79.3047 46.9375 79.0078C46.6354 78.7057 46.1901 78.5547 45.6016 78.5547C45.0859 78.5547 44.6536 78.6849 44.3047 78.9453C43.9557 79.2057 43.7812 79.5208 43.7812 79.8906H42.3281C42.3281 79.4688 42.4766 79.0625 42.7734 78.6719C43.0755 78.276 43.4818 77.9635 43.9922 77.7344C44.5078 77.5052 45.0729 77.3906 45.6875 77.3906C46.6615 77.3906 47.4245 77.6354 47.9766 78.125C48.5286 78.6094 48.8151 79.2786 48.8359 80.1328V84.0234C48.8359 84.7995 48.9349 85.4167 49.1328 85.875V86H47.6172ZM45.2188 84.8984C45.6719 84.8984 46.1016 84.7812 46.5078 84.5469C46.9141 84.3125 47.2083 84.0078 47.3906 83.6328V81.8984H46.2578C44.487 81.8984 43.6016 82.4167 43.6016 83.4531C43.6016 83.9062 43.7526 84.2604 44.0547 84.5156C44.3568 84.7708 44.7448 84.8984 45.2188 84.8984ZM54.4922 84.9766C55.0078 84.9766 55.4583 84.8203 55.8438 84.5078C56.2292 84.1953 56.4427 83.8047 56.4844 83.3359H57.8516C57.8255 83.8203 57.6589 84.2812 57.3516 84.7188C57.0443 85.1562 56.6328 85.5052 56.1172 85.7656C55.6068 86.026 55.0651 86.1562 54.4922 86.1562C53.3411 86.1562 52.4245 85.7734 51.7422 85.0078C51.0651 84.237 50.7266 83.1849 50.7266 81.8516V81.6094C50.7266 80.7865 50.8776 80.0547 51.1797 79.4141C51.4818 78.7734 51.9141 78.276 52.4766 77.9219C53.0443 77.5677 53.7135 77.3906 54.4844 77.3906C55.4323 77.3906 56.2188 77.6745 56.8438 78.2422C57.474 78.8099 57.8099 79.5469 57.8516 80.4531H56.4844C56.4427 79.9062 56.2344 79.4583 55.8594 79.1094C55.4896 78.7552 55.0312 78.5781 54.4844 78.5781C53.75 78.5781 53.1797 78.8438 52.7734 79.375C52.3724 79.901 52.1719 80.6641 52.1719 81.6641V81.9375C52.1719 82.9115 52.3724 83.6615 52.7734 84.1875C53.1745 84.7135 53.7474 84.9766 54.4922 84.9766ZM59.0938 81.6953C59.0938 80.8672 59.2552 80.1224 59.5781 79.4609C59.9062 78.7995 60.3594 78.2891 60.9375 77.9297C61.5208 77.5703 62.1849 77.3906 62.9297 77.3906C64.0807 77.3906 65.0104 77.7891 65.7188 78.5859C66.4323 79.3828 66.7891 80.4427 66.7891 81.7656V81.8672C66.7891 82.6901 66.6302 83.4297 66.3125 84.0859C66 84.737 65.5495 85.2448 64.9609 85.6094C64.3776 85.974 63.7057 86.1562 62.9453 86.1562C61.7995 86.1562 60.8698 85.7578 60.1562 84.9609C59.4479 84.1641 59.0938 83.1094 59.0938 81.7969V81.6953ZM60.5469 81.8672C60.5469 82.8047 60.763 83.5573 61.1953 84.125C61.6328 84.6927 62.2161 84.9766 62.9453 84.9766C63.6797 84.9766 64.263 84.6901 64.6953 84.1172C65.1276 83.5391 65.3438 82.7318 65.3438 81.6953C65.3438 80.7682 65.1224 80.0182 64.6797 79.4453C64.2422 78.8672 63.6589 78.5781 62.9297 78.5781C62.2161 78.5781 61.6406 78.862 61.2031 79.4297C60.7656 79.9974 60.5469 80.8099 60.5469 81.8672ZM68.7344 86V77.5469H72.0312C73.1562 77.5469 74.0182 77.7448 74.6172 78.1406C75.2214 78.5312 75.5234 79.1068 75.5234 79.8672C75.5234 80.2578 75.4062 80.612 75.1719 80.9297C74.9375 81.2422 74.5911 81.4818 74.1328 81.6484C74.6432 81.7682 75.0521 82.0026 75.3594 82.3516C75.6719 82.7005 75.8281 83.1172 75.8281 83.6016C75.8281 84.3776 75.5417 84.9714 74.9688 85.3828C74.401 85.7943 73.5964 86 72.5547 86H68.7344ZM70.1797 82.2891V84.8359H72.5703C73.1745 84.8359 73.625 84.724 73.9219 84.5C74.224 84.276 74.375 83.9609 74.375 83.5547C74.375 82.7109 73.7552 82.2891 72.5156 82.2891H70.1797ZM70.1797 81.1328H72.0469C73.401 81.1328 74.0781 80.737 74.0781 79.9453C74.0781 79.1536 73.4375 78.7448 72.1562 78.7188H70.1797V81.1328Z" fill="white"/>
</svg>
